<svg width="614" height="614" viewBox="0 0 614 614" fill="none" xmlns="http://www.w3.org/2000/svg">
<path d="M518.062 0H95.9375C42.9527 0 0 42.9527 0 95.9375V518.062C0 571.047 42.9527 614 95.9375 614H518.062C571.047 614 614 571.047 614 518.062V95.9375C614 42.9527 571.047 0 518.062 0Z" fill="#333333"/>
<path d="M489 306.5C489 206.125 406.875 124 306.5 124C206.125 124 124 206.125 124 306.5C124 397.75 190.156 473.031 276.844 486.719V358.969H231.219V306.5H276.844V265.437C276.844 219.812 304.219 194.719 345.281 194.719C365.813 194.719 386.344 199.281 386.344 199.281V244.906H363.531C340.719 244.906 333.875 258.594 333.875 272.281V306.5H384.062L374.938 358.969H331.594V489C422.844 475.312 489 397.75 489 306.5Z" fill="white"/>
</svg>
