<svg width="614" height="614" viewBox="0 0 614 614" fill="none" xmlns="http://www.w3.org/2000/svg">
<path d="M614 110C614 49.2487 564.751 0 504 0H110C49.2487 0 0 49.2487 0 110V504C0 564.751 49.2487 614 110 614H504C564.751 614 614 564.751 614 504V110Z" fill="#333333"/>
<path d="M306.5 156.982C354.874 156.982 361.47 156.982 381.259 156.982C398.849 156.982 407.645 161.38 414.241 163.578C423.036 167.976 429.633 170.175 436.229 176.771C442.825 183.367 447.223 189.964 449.422 198.759C451.621 205.355 453.819 214.151 456.018 231.741C456.018 251.53 456.018 255.928 456.018 306.5C456.018 357.072 456.018 361.47 456.018 381.259C456.018 398.849 451.621 407.645 449.422 414.241C445.024 423.036 442.825 429.633 436.229 436.229C429.633 442.825 423.036 447.223 414.241 449.422C407.645 451.621 398.849 453.819 381.259 456.018C361.47 456.018 357.072 456.018 306.5 456.018C255.928 456.018 251.53 456.018 231.741 456.018C214.151 456.018 205.355 451.621 198.759 449.422C189.964 445.024 183.367 442.825 176.771 436.229C170.175 429.633 165.777 423.036 163.578 414.241C161.38 407.645 159.181 398.849 156.982 381.259C156.982 361.47 156.982 357.072 156.982 306.5C156.982 255.928 156.982 251.53 156.982 231.741C156.982 214.151 161.38 205.355 163.578 198.759C167.976 189.964 170.175 183.367 176.771 176.771C183.367 170.175 189.964 165.777 198.759 163.578C205.355 161.38 214.151 159.181 231.741 156.982C251.53 156.982 258.127 156.982 306.5 156.982ZM306.5 124C255.928 124 251.53 124 231.741 124C211.952 124 198.759 128.398 187.765 132.795C176.771 137.193 165.777 143.789 154.783 154.783C143.789 165.777 139.392 174.572 132.795 187.765C128.398 198.759 126.199 211.952 124 231.741C124 251.53 124 258.127 124 306.5C124 357.072 124 361.47 124 381.259C124 401.048 128.398 414.241 132.795 425.235C137.193 436.229 143.789 447.223 154.783 458.217C165.777 469.211 174.572 473.608 187.765 480.205C198.759 484.602 211.952 486.801 231.741 489C251.53 489 258.127 489 306.5 489C354.874 489 361.47 489 381.259 489C401.048 489 414.241 484.602 425.235 480.205C436.229 475.807 447.223 469.211 458.217 458.217C469.211 447.223 473.608 438.428 480.205 425.235C484.602 414.241 486.801 401.048 489 381.259C489 361.47 489 354.874 489 306.5C489 258.127 489 251.53 489 231.741C489 211.952 484.602 198.759 480.205 187.765C475.807 176.771 469.211 165.777 458.217 154.783C447.223 143.789 438.428 139.392 425.235 132.795C414.241 128.398 401.048 126.199 381.259 124C361.47 124 357.072 124 306.5 124Z" fill="white"/>
<path d="M306.5 211.952C253.729 211.952 211.952 253.729 211.952 306.5C211.952 359.271 253.729 401.048 306.5 401.048C359.271 401.048 401.048 359.271 401.048 306.5C401.048 253.729 359.271 211.952 306.5 211.952ZM306.5 368.066C273.518 368.066 244.934 341.681 244.934 306.5C244.934 273.518 271.319 244.934 306.5 244.934C339.482 244.934 368.066 271.319 368.066 306.5C368.066 339.482 339.482 368.066 306.5 368.066Z" fill="white"/>
<path d="M403.247 231.741C415.391 231.741 425.235 221.897 425.235 209.753C425.235 197.609 415.391 187.765 403.247 187.765C391.103 187.765 381.259 197.609 381.259 209.753C381.259 221.897 391.103 231.741 403.247 231.741Z" fill="white"/>
</svg>
