<svg width="614" height="614" viewBox="0 0 614 614" fill="none" xmlns="http://www.w3.org/2000/svg">
<path d="M518.062 0H95.9375C42.9527 0 0 42.9527 0 95.9375V518.062C0 571.047 42.9527 614 95.9375 614H518.062C571.047 614 614 571.047 614 518.062V95.9375C614 42.9527 571.047 0 518.062 0Z" fill="#333333"/>
<path d="M489 193.219C475.312 200.063 461.625 202.344 445.656 204.625C461.625 195.5 473.031 181.812 477.594 163.562C463.906 172.687 447.937 177.25 429.687 181.812C416 168.125 395.469 159 374.938 159C327.031 159 290.531 204.625 301.938 250.25C240.344 247.969 185.594 218.313 146.812 172.688C126.281 206.906 137.688 250.25 169.625 273.062C158.219 273.062 146.812 268.5 135.406 263.938C135.406 298.156 160.5 330.094 194.719 339.219C183.313 341.5 171.906 343.781 160.5 341.5C169.625 371.156 197 393.969 231.219 393.969C203.844 414.5 162.781 425.906 124 421.344C158.219 441.875 197 455.562 238.062 455.562C377.219 455.562 454.781 339.219 450.219 232C466.187 222.875 479.875 209.187 489 193.219Z" fill="white"/>
</svg>
