<svg width="963" height="963" viewBox="0 0 963 963" fill="none" xmlns="http://www.w3.org/2000/svg">
<g clip-path="url(#clip0_318_47)">
<path d="M316.651 268.235C260.337 268.235 214.685 226.454 214.685 174.915V174.915C214.685 123.376 260.337 81.5957 316.651 81.5957L682.209 81.5957C738.523 81.5957 784.174 123.376 784.174 174.915V174.915C784.174 226.454 738.523 268.235 682.209 268.235L316.651 268.235Z" fill="#968056"/>
<rect width="52.1768" height="429.551" rx="26.0884" transform="matrix(0.866025 0.5 0.5 -0.866025 524.63 543.106)" fill="#968056"/>
<path d="M654.565 422.113L577.906 554.539C543.948 613.2 459.239 613.152 425.348 554.452V554.452V554.452C391.458 495.752 433.77 422.367 501.551 422.289L654.565 422.113Z" fill="#968056"/>
<path d="M611.802 470.632L545.5 422.5C568.831 420.289 590.677 410.072 607.331 393.584L616 385L611.802 470.632Z" fill="#968056"/>
<path d="M626.839 604.639C683.153 604.639 728.805 562.859 728.805 511.32V511.32C728.805 459.781 683.153 418 626.839 418L261.281 418C204.967 418 159.315 459.781 159.315 511.32V511.32C159.315 562.859 204.967 604.639 261.281 604.639L626.839 604.639Z" fill="#968056"/>
<rect x="419.197" y="879.316" width="52.5661" height="429.551" rx="26.2831" transform="rotate(150 419.197 879.316)" fill="#968056"/>
<path d="M294.77 768.376L371.429 900.802C405.387 959.463 490.096 959.414 523.987 900.714V900.714V900.714C557.877 842.014 515.564 768.629 447.784 768.552L294.77 768.376Z" fill="#968056"/>
<path d="M343.873 789.663L386.593 769.235C368.914 765.215 352.842 755.997 340.446 742.766L340.092 742.388L343.873 789.663Z" fill="#968056"/>
</g>
<defs>
<clipPath id="clip0_318_47">
<rect width="963" height="963" fill="white"/>
</clipPath>
</defs>
</svg>
